<mxfile host="app.diagrams.net" agent="Mozilla/5.0 (Windows NT 10.0; Win64; x64) AppleWebKit/537.36 (KHTML, like Gecko) Chrome/132.0.0.0 Safari/537.36 OPR/117.0.0.0" version="26.2.14">
  <diagram name="Page-1" id="929967ad-93f9-6ef4-fab6-5d389245f69c">
    <mxGraphModel dx="1629" dy="900" grid="1" gridSize="10" guides="1" tooltips="1" connect="1" arrows="1" fold="1" page="1" pageScale="1.5" pageWidth="1169" pageHeight="826" background="none" math="0" shadow="0">
      <root>
        <mxCell id="0" style=";html=1;" />
        <mxCell id="1" style=";html=1;" parent="0" />
        <mxCell id="FP77lFUsVwV75FurZ4Pe-1" value="&lt;p style=&quot;margin: 0px ; margin-top: 4px ; margin-left: 10px ; text-align: left&quot;&gt;&lt;b&gt;req&lt;/b&gt;&amp;nbsp;ReqDiagram&lt;/p&gt;" style="html=1;strokeWidth=1;shape=mxgraph.sysml.package;html=1;overflow=fill;whiteSpace=wrap;fillColor=none;gradientColor=none;fontSize=12;align=center;labelX=327.64;" parent="1" vertex="1">
          <mxGeometry x="390" width="860" height="860" as="geometry" />
        </mxCell>
        <mxCell id="FP77lFUsVwV75FurZ4Pe-2" value="&lt;p style=&quot;margin: 0px ; margin-top: 4px ; text-align: center&quot;&gt;&amp;lt;&amp;lt;requirement&amp;gt;&amp;gt;&lt;br&gt;&lt;b&gt;Time on foot to destination&lt;/b&gt;&lt;/p&gt;&lt;hr&gt;&lt;p style=&quot;margin: 0px ; margin-left: 8px ; text-align: left&quot;&gt;Id = &quot;TOF-1&quot;&lt;/p&gt;&lt;p style=&quot;margin: 0px ; margin-left: 8px ; text-align: left&quot;&gt;text = &quot;The system shall calculate the estimated time to reach a destination on foot based on the userâ€™s current location, walking speed, and the distance to the destination.&quot;&lt;/p&gt;" style="shape=rect;html=1;overflow=fill;whiteSpace=wrap;" parent="1" vertex="1">
          <mxGeometry x="700" y="255" width="290" height="130" as="geometry" />
        </mxCell>
        <mxCell id="FP77lFUsVwV75FurZ4Pe-3" style="edgeStyle=orthogonalEdgeStyle;rounded=0;html=1;endArrow=circlePlus;endFill=0;jettySize=auto;orthogonalLoop=1;exitX=0.5;exitY=0;exitDx=0;exitDy=0;" parent="1" edge="1">
          <mxGeometry relative="1" as="geometry">
            <Array as="points">
              <mxPoint x="840" y="480" />
            </Array>
            <mxPoint x="847" y="480" as="sourcePoint" />
            <mxPoint x="840" y="385" as="targetPoint" />
          </mxGeometry>
        </mxCell>
        <mxCell id="FP77lFUsVwV75FurZ4Pe-4" value="&lt;p style=&quot;margin: 0px ; margin-top: 4px ; text-align: center&quot;&gt;&amp;lt;&amp;lt;requirement&amp;gt;&amp;gt;&lt;br&gt;&lt;b&gt;Get User speed&lt;/b&gt;&lt;/p&gt;&lt;hr&gt;&lt;p style=&quot;margin: 0px ; margin-left: 8px ; text-align: left&quot;&gt;Id = &quot;TOF-1.1&quot;&lt;/p&gt;&lt;p style=&quot;margin: 0px ; margin-left: 8px ; text-align: left&quot;&gt;text=&quot;The system shall detect the average speed of the user.&quot;&lt;/p&gt;" style="shape=rect;html=1;overflow=fill;whiteSpace=wrap;" parent="1" vertex="1">
          <mxGeometry x="510" y="475" width="240" height="120" as="geometry" />
        </mxCell>
        <mxCell id="FP77lFUsVwV75FurZ4Pe-5" value="&lt;p style=&quot;margin: 0px ; margin-top: 4px ; text-align: center&quot;&gt;&amp;lt;&amp;lt;requirement&amp;gt;&amp;gt;&lt;br&gt;&lt;b&gt;Get Path information&lt;/b&gt;&lt;/p&gt;&lt;hr&gt;&lt;p style=&quot;margin: 0px ; margin-left: 8px ; text-align: left&quot;&gt;Id = &quot;TOF-1.2&quot;&lt;/p&gt;&lt;p style=&quot;margin: 0px ; margin-left: 8px ; text-align: left&quot;&gt;text=&quot;The system shall retrieve the current location periodically, the destination, and distance between the two.&quot;&lt;/p&gt;" style="shape=rect;html=1;overflow=fill;whiteSpace=wrap;" parent="1" vertex="1">
          <mxGeometry x="760" y="475" width="200" height="120" as="geometry" />
        </mxCell>
        <mxCell id="FP77lFUsVwV75FurZ4Pe-6" value="&lt;p style=&quot;margin: 0px ; margin-top: 4px ; text-align: center&quot;&gt;&amp;lt;&amp;lt;requirement&amp;gt;&amp;gt;&lt;br&gt;&lt;b&gt;Calculate the Time on foot to destination&lt;/b&gt;&lt;/p&gt;&lt;hr&gt;&lt;p style=&quot;margin: 0px ; margin-left: 8px ; text-align: left&quot;&gt;Id = &quot;TOF-1.4&quot;&lt;/p&gt;&lt;p style=&quot;margin: 0px ; margin-left: 8px ; text-align: left&quot;&gt;text=&quot;With the retrieved data, the system shall calculate the time on foot to destination.&quot;&lt;/p&gt;" style="shape=rect;html=1;overflow=fill;whiteSpace=wrap;" parent="1" vertex="1">
          <mxGeometry x="640" y="675" width="210" height="120" as="geometry" />
        </mxCell>
        <mxCell id="FP77lFUsVwV75FurZ4Pe-7" value="" style="endArrow=none;html=1;rounded=0;exitX=0.5;exitY=0;exitDx=0;exitDy=0;" parent="1" source="FP77lFUsVwV75FurZ4Pe-4" edge="1">
          <mxGeometry width="50" height="50" relative="1" as="geometry">
            <mxPoint x="620" y="475" as="sourcePoint" />
            <mxPoint x="840" y="425" as="targetPoint" />
            <Array as="points">
              <mxPoint x="630" y="425" />
            </Array>
          </mxGeometry>
        </mxCell>
        <mxCell id="FP77lFUsVwV75FurZ4Pe-8" value="&amp;lt;&amp;lt;deriveReq&amp;gt;&amp;gt;" style="endArrow=open;html=1;edgeStyle=none;endSize=12;dashed=1;rounded=0;entryX=0.5;entryY=1;entryDx=0;entryDy=0;exitX=0.5;exitY=0;exitDx=0;exitDy=0;" parent="1" source="FP77lFUsVwV75FurZ4Pe-6" target="FP77lFUsVwV75FurZ4Pe-4" edge="1">
          <mxGeometry relative="1" as="geometry">
            <mxPoint x="660" y="425" as="targetPoint" />
            <mxPoint x="660" y="505" as="sourcePoint" />
          </mxGeometry>
        </mxCell>
        <mxCell id="FP77lFUsVwV75FurZ4Pe-9" value="&amp;lt;&amp;lt;deriveReq&amp;gt;&amp;gt;" style="endArrow=open;html=1;edgeStyle=none;endSize=12;dashed=1;rounded=0;entryX=0.5;entryY=1;entryDx=0;entryDy=0;exitX=0.5;exitY=0;exitDx=0;exitDy=0;" parent="1" source="FP77lFUsVwV75FurZ4Pe-6" target="FP77lFUsVwV75FurZ4Pe-5" edge="1">
          <mxGeometry relative="1" as="geometry">
            <mxPoint x="670" y="435" as="targetPoint" />
            <mxPoint x="670" y="515" as="sourcePoint" />
          </mxGeometry>
        </mxCell>
        <mxCell id="FP77lFUsVwV75FurZ4Pe-12" value="" style="fontStyle=1;align=center;verticalAlign=middle;childLayout=stackLayout;horizontal=1;horizontalStack=0;resizeParent=1;resizeParentMax=0;resizeLast=0;marginBottom=0;" parent="1" vertex="1">
          <mxGeometry x="760" y="90" width="160" height="120" as="geometry" />
        </mxCell>
        <mxCell id="FP77lFUsVwV75FurZ4Pe-13" value="&amp;lt;&amp;lt;NF requirement&amp;gt;&amp;gt;" style="html=1;align=center;spacing=0;verticalAlign=middle;strokeColor=none;fillColor=none;whiteSpace=wrap;spacingTop=3;" parent="FP77lFUsVwV75FurZ4Pe-12" vertex="1">
          <mxGeometry width="160" height="16" as="geometry" />
        </mxCell>
        <mxCell id="FP77lFUsVwV75FurZ4Pe-14" value="Performance" style="html=1;align=center;spacing=0;verticalAlign=middle;strokeColor=none;fillColor=none;whiteSpace=wrap;fontStyle=1" parent="FP77lFUsVwV75FurZ4Pe-12" vertex="1">
          <mxGeometry y="16" width="160" height="18" as="geometry" />
        </mxCell>
        <mxCell id="FP77lFUsVwV75FurZ4Pe-15" value="" style="line;strokeWidth=0.25;fillColor=none;align=left;verticalAlign=middle;spacingTop=-1;spacingLeft=3;spacingRight=3;rotatable=0;labelPosition=right;points=[];portConstraint=eastwest;" parent="FP77lFUsVwV75FurZ4Pe-12" vertex="1">
          <mxGeometry y="34" width="160" height="8" as="geometry" />
        </mxCell>
        <mxCell id="FP77lFUsVwV75FurZ4Pe-16" value="Id=&quot;TOF-NF-2&quot;" style="html=1;align=left;spacing=0;verticalAlign=middle;strokeColor=none;fillColor=none;whiteSpace=wrap;spacingLeft=10;" parent="FP77lFUsVwV75FurZ4Pe-12" vertex="1">
          <mxGeometry y="42" width="160" height="16" as="geometry" />
        </mxCell>
        <mxCell id="FP77lFUsVwV75FurZ4Pe-17" value="text=&quot;The system shall update the Estimated time of arrival by foot every 3 seconds.&quot;" style="html=1;align=left;spacing=0;verticalAlign=middle;strokeColor=none;fillColor=none;whiteSpace=wrap;spacingLeft=10;" parent="FP77lFUsVwV75FurZ4Pe-12" vertex="1">
          <mxGeometry y="58" width="160" height="62" as="geometry" />
        </mxCell>
        <mxCell id="FP77lFUsVwV75FurZ4Pe-96" value="&lt;p style=&quot;margin: 0px ; margin-top: 4px ; text-align: center&quot;&gt;&amp;lt;&amp;lt;requirement&amp;gt;&amp;gt;&lt;br&gt;&lt;b&gt;Display information&lt;/b&gt;&lt;/p&gt;&lt;hr&gt;&lt;p style=&quot;margin: 0px ; margin-left: 8px ; text-align: left&quot;&gt;Id = &quot;TOF-1.3&quot;&lt;/p&gt;&lt;p style=&quot;margin: 0px ; margin-left: 8px ; text-align: left&quot;&gt;text=&quot;The system shall display the time on foot to location to the user.&quot;&lt;/p&gt;" style="shape=rect;html=1;overflow=fill;whiteSpace=wrap;" parent="1" vertex="1">
          <mxGeometry x="990" y="475" width="200" height="120" as="geometry" />
        </mxCell>
        <mxCell id="FP77lFUsVwV75FurZ4Pe-97" value="" style="endArrow=none;html=1;rounded=0;exitX=0.5;exitY=0;exitDx=0;exitDy=0;" parent="1" edge="1">
          <mxGeometry width="50" height="50" relative="1" as="geometry">
            <mxPoint x="1080" y="475" as="sourcePoint" />
            <mxPoint x="840" y="425" as="targetPoint" />
            <Array as="points">
              <mxPoint x="1080" y="425" />
            </Array>
          </mxGeometry>
        </mxCell>
        <mxCell id="com5FuT9qpxgrwEG2PCQ-1" value="&lt;p style=&quot;margin:0px;margin-top:4px;text-align:center;&quot;&gt;&lt;i&gt;&amp;lt;&amp;lt;NF requirement&amp;gt;&amp;gt;&lt;/i&gt;&lt;br&gt;&lt;b&gt;Availability&lt;/b&gt;&lt;/p&gt;&lt;hr size=&quot;1&quot; style=&quot;border-style:solid;&quot;&gt;&lt;p style=&quot;margin:0px;margin-left:4px;&quot;&gt;Id=&quot;TOF-NF-1&quot;&lt;/p&gt;&lt;p style=&quot;margin:0px;margin-left:4px;&quot;&gt;text=&quot;The system shall allow offline ETA calculation if the map data is pre-downloaded.&quot;&lt;/p&gt;" style="verticalAlign=top;align=left;overflow=fill;html=1;whiteSpace=wrap;" vertex="1" parent="1">
          <mxGeometry x="450" y="90" width="180" height="120" as="geometry" />
        </mxCell>
        <mxCell id="com5FuT9qpxgrwEG2PCQ-6" style="edgeStyle=orthogonalEdgeStyle;rounded=0;orthogonalLoop=1;jettySize=auto;html=1;entryX=0.5;entryY=0;entryDx=0;entryDy=0;endArrow=circlePlus;endFill=0;" edge="1" parent="1">
          <mxGeometry relative="1" as="geometry">
            <mxPoint x="540" y="215" as="sourcePoint" />
            <Array as="points">
              <mxPoint x="540" y="215" />
              <mxPoint x="540" y="225" />
              <mxPoint x="838" y="225" />
            </Array>
            <mxPoint x="838.13" y="255" as="targetPoint" />
          </mxGeometry>
        </mxCell>
        <mxCell id="com5FuT9qpxgrwEG2PCQ-10" style="edgeStyle=orthogonalEdgeStyle;rounded=0;orthogonalLoop=1;jettySize=auto;html=1;entryX=0.5;entryY=0;entryDx=0;entryDy=0;endArrow=circlePlus;endFill=0;exitX=0.5;exitY=1;exitDx=0;exitDy=0;" edge="1" parent="1" source="FP77lFUsVwV75FurZ4Pe-17">
          <mxGeometry relative="1" as="geometry">
            <Array as="points">
              <mxPoint x="838" y="210" />
            </Array>
            <mxPoint x="1282.13" y="215" as="sourcePoint" />
            <mxPoint x="838.13" y="255" as="targetPoint" />
          </mxGeometry>
        </mxCell>
      </root>
    </mxGraphModel>
  </diagram>
</mxfile>
